<?xml version="1.0" encoding="UTF-8" standalone="no" ?>
<!DOCTYPE svg PUBLIC "-//W3C//DTD SVG 1.1//EN" "http://www.w3.org/Graphics/SVG/1.1/DTD/svg11.dtd">
<svg xmlns="http://www.w3.org/2000/svg" xmlns:xlink="http://www.w3.org/1999/xlink" version="1.1" width="30" height="30" viewBox="0 0 30 30" xml:space="preserve">
<desc>Created with Fabric.js 3.6.6</desc>
<defs>
</defs>
<g transform="matrix(1 0 0 1 320 240)"  >
<g style=""   >
		<g transform="matrix(1 0 0 1 -305 -225)"  >
<radialGradient id="SVGID_SVGID_paint0_radial_1051_719_5_5" gradientUnits="userSpaceOnUse" gradientTransform="matrix(19.56 0 0 19.56 -7.41 -10.95)"  cx="0" cy="0" r="1" fx="0" fy="0">
<stop offset="0%" style="stop-color:rgb(109,177,222);stop-opacity: 1"/>
<stop offset="100%" style="stop-color:rgb(32,115,170);stop-opacity: 1"/>
</radialGradient>
<rect style="stroke: none; stroke-width: 1; stroke-dasharray: none; stroke-linecap: butt; stroke-dashoffset: 0; stroke-linejoin: miter; stroke-miterlimit: 4; fill: url(#SVGID_SVGID_paint0_radial_1051_719_5_5); fill-rule: nonzero; opacity: 1;"  x="-15" y="-15" rx="9" ry="9" width="30" height="30" />
</g>
		<g transform="matrix(1 0 0 1 -305 -219)"  >
<circle style="stroke: none; stroke-width: 1; stroke-dasharray: none; stroke-linecap: butt; stroke-dashoffset: 0; stroke-linejoin: miter; stroke-miterlimit: 4; fill: rgb(13,73,112); fill-rule: nonzero; opacity: 0.5;"  cx="0" cy="0" r="6" />
</g>
		<g transform="matrix(1 0 0 1 -305 -225)"  >
<path style="stroke: none; stroke-width: 1; stroke-dasharray: none; stroke-linecap: butt; stroke-dashoffset: 0; stroke-linejoin: miter; stroke-miterlimit: 4; fill: rgb(255,255,255); fill-rule: nonzero; opacity: 0.08;"  transform=" translate(-49, -80)" d="M 34 74 C 34 69.0294 38.0294 65 43 65 H 55 C 59.9705 65 64 69.0294 64 74 V 86 C 64 90.9706 59.9705 95 55 95 H 43 C 38.0294 95 34 90.9706 34 86 V 74 Z" stroke-linecap="round" />
</g>
		<g transform="matrix(1 0 0 1 -305.03 -224.48)"  >
<path style="stroke: none; stroke-width: 1; stroke-dasharray: none; stroke-linecap: butt; stroke-dashoffset: 0; stroke-linejoin: miter; stroke-miterlimit: 4; fill: rgb(31,106,156); fill-rule: evenodd; opacity: 1;"  transform=" translate(-48.97, -80.52)" d="M 58.5306 79.6592 L 49.6212 72.9368 C 49.2358 72.65 48.707 72.65 48.3215 72.9368 L 39.4122 79.6592 C 38.8385 80.0894 38.8385 80.9409 39.4122 81.3711 L 48.3215 88.0935 C 48.707 88.3803 49.2358 88.3803 49.6212 88.0935 L 56.3397 83.0242 V 83.9316 L 55.2103 84.7831 C 55.0669 84.8906 55.0669 85.1147 55.2103 85.2223 L 56.3397 86.0738 V 86.5399 C 56.3397 86.7012 56.4652 86.8267 56.6265 86.8267 H 56.6623 C 56.8237 86.8267 56.9492 86.7012 56.9492 86.5399 V 86.0469 L 58.0337 85.2223 C 58.1771 85.1237 58.1771 84.8996 58.0337 84.792 L 56.9492 83.9674 V 82.5644 L 58.5306 81.3711 C 59.1042 80.9409 59.1042 80.0894 58.5306 79.6592 Z M 52.6196 81.108 L 49.4002 83.5316 C 49.1462 83.7203 48.7977 83.7203 48.5437 83.5316 L 48.1951 83.2663 C 48.1302 83.2191 48.0475 83.2073 47.9707 83.2427 L 46.8424 83.7616 C 46.6652 83.8441 46.5825 83.7675 46.6652 83.5847 L 47.0964 82.653 C 47.1378 82.5586 47.1141 82.4466 47.0314 82.3876 L 45.3302 81.1021 C 44.9521 80.8191 44.9521 80.2589 45.3302 79.9759 L 48.5496 77.5523 C 48.8036 77.3636 49.1521 77.3636 49.4061 77.5523 L 52.6255 79.9759 C 52.9917 80.2648 52.9917 80.825 52.6196 81.108 Z M 56.9492 85.4284 L 57.3525 85.1237 C 57.4242 85.0699 57.4242 84.9534 57.3525 84.8996 L 56.9492 84.5949 L 56.7072 84.4156 C 56.6534 84.3797 56.5906 84.3797 56.5369 84.4156 L 56.3397 84.568 L 55.8915 84.8996 C 55.8198 84.9534 55.8198 85.0699 55.8915 85.1237 L 56.3397 85.4553 L 56.5369 85.6077 C 56.5906 85.6435 56.6534 85.6435 56.7072 85.6077 L 56.9492 85.4284 Z" stroke-linecap="round" />
</g>
		<g transform="matrix(1 0 0 1 -305.03 -225.46)"  >
<path style="stroke: none; stroke-width: 1; stroke-dasharray: none; stroke-linecap: butt; stroke-dashoffset: 0; stroke-linejoin: miter; stroke-miterlimit: 4; fill: rgb(240,240,240); fill-rule: evenodd; opacity: 1;"  transform=" translate(-48.97, -79.54)" d="M 58.5306 78.685 L 49.6212 71.9627 C 49.2358 71.6759 48.707 71.6759 48.3215 71.9627 L 39.4122 78.685 C 38.8385 79.1153 38.8385 79.9668 39.4122 80.397 L 48.3215 87.1194 C 48.707 87.4062 49.2358 87.4062 49.6212 87.1194 L 56.3397 82.0501 V 83.5419 L 55.2103 84.3934 C 55.0669 84.501 55.0669 84.7251 55.2103 84.8326 L 56.3397 85.6841 V 86.1502 C 56.3397 86.3115 56.4652 86.437 56.6265 86.437 H 56.6624 C 56.8237 86.437 56.9492 86.3115 56.9492 86.1502 V 85.6572 L 58.0337 84.8326 C 58.1771 84.734 58.1771 84.5099 58.0337 84.4024 L 56.9492 83.5778 V 81.5902 L 58.5306 80.397 C 59.1042 79.9668 59.1042 79.1153 58.5306 78.685 Z M 52.6196 80.1339 L 49.4002 82.5574 C 49.1462 82.7461 48.7977 82.7461 48.5437 82.5574 L 48.1952 82.2921 C 48.1302 82.2449 48.0475 82.2331 47.9707 82.2685 L 46.8424 82.7874 C 46.6652 82.87 46.5825 82.7933 46.6652 82.6105 L 47.0964 81.6788 C 47.1378 81.5845 47.1142 81.4724 47.0315 81.4135 L 45.3302 80.128 C 44.9521 79.8449 44.9521 79.2847 45.3302 79.0017 L 48.5496 76.5781 C 48.8036 76.3894 49.1521 76.3894 49.4061 76.5781 L 52.6255 79.0017 C 52.9917 79.2906 52.9917 79.8508 52.6196 80.1339 Z M 56.9492 85.0388 L 57.3525 84.734 C 57.4242 84.6802 57.4242 84.5637 57.3525 84.5099 L 56.9492 84.2052 L 56.7072 84.0259 C 56.6534 83.9901 56.5907 83.9901 56.5369 84.0259 L 56.3397 84.1783 L 55.8915 84.5099 C 55.8198 84.5637 55.8198 84.6802 55.8915 84.734 L 56.3397 85.0657 L 56.5369 85.218 C 56.5907 85.2539 56.6534 85.2539 56.7072 85.218 L 56.9492 85.0388 Z" stroke-linecap="round" />
</g>
</g>
</g>
</svg>