<?xml version="1.0" encoding="UTF-8" standalone="no" ?>
<!DOCTYPE svg PUBLIC "-//W3C//DTD SVG 1.1//EN" "http://www.w3.org/Graphics/SVG/1.1/DTD/svg11.dtd">
<svg xmlns="http://www.w3.org/2000/svg" xmlns:xlink="http://www.w3.org/1999/xlink" version="1.1" width="30" height="30" viewBox="0 0 30 30" xml:space="preserve">
<desc>Created with Fabric.js 3.6.6</desc>
<defs>
</defs>
<g transform="matrix(1 0 0 1 14.5 75)"  >
<g style=""   >
		<g transform="matrix(-1 0 0 1 0.5 -60)"  >
<rect style="stroke: none; stroke-width: 1; stroke-dasharray: none; stroke-linecap: butt; stroke-dashoffset: 0; stroke-linejoin: miter; stroke-miterlimit: 4; fill: rgb(44,44,96); fill-rule: nonzero; opacity: 1;"  x="-15" y="-15" rx="9" ry="9" width="30" height="30" />
</g>
		<g transform="matrix(1 0 0 1 6.71 -64.7)"  >
<path style="stroke: none; stroke-width: 1; stroke-dasharray: none; stroke-linecap: butt; stroke-dashoffset: 0; stroke-linejoin: miter; stroke-miterlimit: 4; fill: rgb(255,97,117); fill-rule: nonzero; opacity: 1;"  transform=" translate(-55.21, -50.3)" d="M 56.6191 50.2005 C 55.5128 50.799 55.0594 50.8897 53.9712 51.5064 C 53.4815 51.7965 53.2276 51.4701 53.5722 51.0167 C 54.3521 50.001 55.2045 49.4388 56.0569 49.0398 C 56.4921 48.8403 57 49.1305 57 49.6202 C 57 49.8741 56.8367 50.0917 56.6191 50.2005 Z" stroke-linecap="round" />
</g>
		<g transform="matrix(1 0 0 1 4.84 -67.03)"  >
<path style="stroke: none; stroke-width: 1; stroke-dasharray: none; stroke-linecap: butt; stroke-dashoffset: 0; stroke-linejoin: miter; stroke-miterlimit: 4; fill: rgb(255,97,117); fill-rule: nonzero; opacity: 1;"  transform=" translate(-53.34, -47.97)" d="M 52.9736 49.6022 C 52.756 50.1282 52.3751 50.0375 52.357 49.4572 C 52.357 48.1876 52.6835 47.2082 53.1187 46.374 C 53.3364 45.9387 53.9167 45.8661 54.2069 46.247 C 54.352 46.4465 54.352 46.7186 54.2613 46.9362 C 53.7535 48.0969 53.4452 48.4415 52.9736 49.6022 Z" stroke-linecap="round" />
</g>
		<g transform="matrix(1 0 0 1 1.62 -66.54)"  >
<path style="stroke: none; stroke-width: 1; stroke-dasharray: none; stroke-linecap: butt; stroke-dashoffset: 0; stroke-linejoin: miter; stroke-miterlimit: 4; fill: rgb(255,97,117); fill-rule: nonzero; opacity: 1;"  transform=" translate(-50.12, -48.46)" d="M 50.7066 50.1283 C 49.7635 49.2759 49.2738 48.369 48.9655 47.4804 C 48.8022 47.027 49.1287 46.5373 49.6184 46.5917 C 49.8723 46.6098 50.0536 46.7912 50.1625 47.027 C 50.6703 48.1695 50.7066 48.6411 51.2325 49.7837 C 51.4683 50.3096 51.1237 50.5273 50.7066 50.1283 Z" stroke-linecap="round" />
</g>
		<g transform="matrix(1 0 0 1 0.3 -59.01)"  >
<path style="stroke: none; stroke-width: 1; stroke-dasharray: none; stroke-linecap: butt; stroke-dashoffset: 0; stroke-linejoin: miter; stroke-miterlimit: 4; fill: rgb(33,221,185); fill-rule: nonzero; opacity: 1;"  transform=" translate(-48.8, -55.99)" d="M 41.6957 60.1936 C 41.7682 60.1755 41.8227 60.0848 41.7864 60.0123 C 41.4237 58.9604 41.0609 58.1986 41.5143 57.7633 C 41.8589 57.4188 42.5662 57.4369 43.1103 57.5094 C 43.2736 57.5276 43.4187 57.3825 43.3824 57.2193 C 43.2192 56.4213 43.1647 55.7502 43.5637 55.4056 C 43.9446 55.061 44.8514 55.2787 45.5406 55.46 C 45.7038 55.4963 45.8308 55.3149 45.722 55.188 C 41.5687 49.6382 40.7163 49.0216 40.8433 48.3868 C 41.2242 46.5006 47.717 51.8327 48.3155 52.3406 C 51.2355 54.8071 52.8677 56.8021 52.8677 56.8021 L 53.2486 56.3124 C 53.4662 56.0404 53.702 55.7683 53.9559 55.4963 C 54.6632 54.7527 55.298 54.3174 55.425 54.2267 H 55.4431 C 55.7514 54.0091 56.1686 53.991 56.5313 54.2086 C 56.7489 54.3356 56.9121 54.5532 56.9666 54.8071 C 57.0754 55.2243 56.9122 55.6414 56.5676 55.8772 L 56.223 56.1129 C 55.5882 56.6208 54.2642 57.8722 53.829 59.4682 C 53.7201 59.8853 53.3574 60.1755 52.9221 60.2118 C 52.904 60.2118 52.8859 60.2118 52.8496 60.2118 C 52.3962 60.2118 52.0153 59.9216 51.8884 59.4863 V 59.4682 C 50.4919 56.4757 46.121 51.0529 43.1466 49.1123 C 41.2242 47.8609 41.3511 48.6951 41.6776 49.0941 C 42.004 49.5113 43.0741 50.3274 47.2817 55.7865 C 47.3905 55.9316 47.4087 56.1492 47.2999 56.3124 C 47.1729 56.4938 46.9371 56.5301 46.7558 56.4394 C 46.1391 56.1311 45.0509 55.8046 44.6882 56.1129 C 44.5613 56.2218 44.3436 56.6026 44.8152 57.9628 C 44.8696 58.0898 44.8514 58.2349 44.7789 58.3437 C 44.6701 58.5432 44.4343 58.5976 44.2348 58.5251 C 43.7814 58.3256 42.9834 58.1805 42.7295 58.4344 C 42.6388 58.5251 42.403 58.9241 42.9834 60.3206 C 43.0378 60.4475 43.0197 60.5926 42.9471 60.7196 C 42.8746 60.8465 42.7476 60.9191 42.6025 60.9191 C 42.4212 60.9372 41.8408 61.0279 41.7138 61.3544 C 41.5687 61.6627 41.7138 62.2068 43.2192 63.3312 C 43.7632 63.7302 43.1829 64.2381 42.6207 63.8753 C 41.5143 63.168 40.3536 61.4994 40.6438 60.8465 C 40.8796 60.375 41.333 60.2843 41.6957 60.1936 Z" stroke-linecap="round" />
</g>
</g>
</g>
</svg>