<?xml version="1.0" encoding="UTF-8" standalone="no" ?>
<!DOCTYPE svg PUBLIC "-//W3C//DTD SVG 1.1//EN" "http://www.w3.org/Graphics/SVG/1.1/DTD/svg11.dtd">
<svg xmlns="http://www.w3.org/2000/svg" xmlns:xlink="http://www.w3.org/1999/xlink" version="1.1" width="40" height="40" viewBox="0 0 40 40" xml:space="preserve">
<desc>Created with Fabric.js 3.6.6</desc>
<defs>
</defs>
<g transform="matrix(1 0 0 1 20 20)"  >
<circle style="stroke: rgb(73,147,177); stroke-width: 1; stroke-dasharray: none; stroke-linecap: butt; stroke-dashoffset: 0; stroke-linejoin: miter; stroke-miterlimit: 4; fill: rgb(237,249,254); fill-rule: nonzero; opacity: 1;"  cx="0" cy="0" r="19.5" />
</g>
<g transform="matrix(1 0 0 1 20.75 20.26)"  >
<path style="stroke: none; stroke-width: 1; stroke-dasharray: none; stroke-linecap: butt; stroke-dashoffset: 0; stroke-linejoin: miter; stroke-miterlimit: 4; fill: rgb(73,147,177); fill-rule: nonzero; opacity: 1;"  transform=" translate(-4.82, -6.24)" d="M 0.573125 12 V 0.48 H 5.14113 C 5.91979 0.48 6.55713 0.637333 7.05313 0.952 C 7.55446 1.26133 7.92513 1.65867 8.16513 2.144 C 8.41046 2.62933 8.53313 3.13067 8.53313 3.648 C 8.53313 4.28267 8.38113 4.82133 8.07713 5.264 C 7.77846 5.70667 7.37046 6.00533 6.85313 6.16 V 5.76 C 7.57846 5.92533 8.12779 6.26933 8.50113 6.792 C 8.87979 7.31467 9.06913 7.90933 9.06913 8.576 C 9.06913 9.25867 8.93846 9.856 8.67712 10.368 C 8.41579 10.88 8.02646 11.28 7.50913 11.568 C 6.99713 11.856 6.36246 12 5.60513 12 H 0.573125 Z M 2.52513 10.184 H 5.36513 C 5.70113 10.184 6.00246 10.1173 6.26913 9.984 C 6.53579 9.84533 6.74379 9.65333 6.89313 9.408 C 7.04779 9.15733 7.12513 8.86133 7.12513 8.52 C 7.12513 8.21067 7.05846 7.93333 6.92513 7.688 C 6.79179 7.44267 6.59713 7.248 6.34113 7.104 C 6.08513 6.95467 5.77846 6.88 5.42113 6.88 H 2.52513 V 10.184 Z M 2.52513 5.08 H 5.11713 C 5.39446 5.08 5.64246 5.02667 5.86113 4.92 C 6.07979 4.81333 6.25313 4.656 6.38113 4.448 C 6.50913 4.24 6.57313 3.984 6.57313 3.68 C 6.57313 3.28 6.44513 2.94667 6.18913 2.68 C 5.93313 2.41333 5.57579 2.28 5.11713 2.28 H 2.52513 V 5.08 Z" stroke-linecap="round" />
</g>
</svg>